<?xml version="1.0" encoding="utf-8"?>
<!DOCTYPE svg PUBLIC "-//W3C//DTD SVG 20010904//EN" "http://www.w3.org/TR/2001/REC-SVG-20010904/DTD/svg10.dtd">
<svg version="1.0" width="141.75pt" height="141.75pt" viewBox="0 0 141.75 141.75" preserveAspectRatio="xMidYMid meet" xmlns="http://www.w3.org/2000/svg">
  <g transform="translate(0,141.75)scale(.075,.075)">
    <path id="path1" d="M 7 -1883 c -4 3 -7 151 -7 327 l 0 321 21 -42 c 47 -95 164 -152 347 -169 l 72 -7 0 -38 c 0 -61 28 -187 53 -242 32 -69 68 -111 120 -136 l 42 -21 -321 0 c -176 0 -324 3 -327 7 z M 785 -1871 c 48 21 118 95 139 145 8 20 19 36 23 36 5 0 15 -16 22 -37 18 -48 87 -122 136 -144 l 40 -19 -200 0 -200 0 40 19 z M 1275 -1871 c 93 42 157 170 171 342 l 7 79 38 0 c 61 0 187 28 242 53 66 30 113 70 137 116 l 19 36 1 -323 0 -322 -328 0 c -325 0 -327 1 -287 19 z M 610 -1702 c -48 47 -60 90 -67 225 -4 85 -9 109 -22 116 -9 5 -64 11 -122 13 -89 4 -116 9 -161 31 -31 15 -60 38 -71 56 -56 95 37 211 170 211 27 0 113 -16 189 -35 76 -19 163 -35 192 -35 l 52 0 0 -49 c 0 -28 16 -114 35 -192 19 -79 35 -166 35 -194 0 -101 -70 -185 -153 -185 -32 0 -46 7 -77 38 z M 1130 -1718 c -47 32 -80 99 -80 163 0 28 16 115 35 194 19 78 35 164 35 192 l 0 49 49 0 c 28 0 114 16 192 35 170 42 229 44 290 12 90 -48 116 -136 59 -201 -42 -47 -104 -67 -232 -73 -61 -3 -112 -10 -117 -17 -5 -6 -11 -58 -14 -116 -6 -126 -26 -188 -73 -230 -43 -38 -96 -40 -144 -8 z M 935 -1478 c -15 44 -54 214 -60 260 -4 32 -2 71 4 96 l 12 42 54 0 c 54 0 54 0 64 -38 17 -58 13 -96 -21 -239 -29 -123 -42 -152 -53 -121 z M 1 -945 c 0 187 1 198 15 165 21 -48 80 -107 136 -136 27 -13 48 -26 48 -29 0 -3 -21 -16 -48 -29 -56 -29 -115 -88 -136 -136 -14 -33 -15 -22 -15 165 z M 1876 -1114 c -10 37 -90 119 -142 143 -24 12 -44 24 -44 27 0 3 16 12 36 20 50 21 124 91 145 139 l 19 40 0 -197 c 0 -109 -2 -198 -4 -198 -2 0 -7 12 -10 26 z M 527 -988 c -70 17 -126 36 -124 42 4 11 103 38 225 60 64 12 94 13 132 5 l 50 -11 0 -53 c 0 -30 -5 -57 -11 -61 -7 -4 -41 -8 -78 -10 -50 -3 -98 4 -194 28 z M 1145 -1015 c -5 2 -22 6 -37 9 -26 6 -28 10 -28 61 l 0 54 42 12 c 24 6 66 9 93 5 78 -9 275 -60 272 -71 -7 -20 -308 -83 -342 -70 z M 235 -817 c -53 30 -85 79 -85 130 0 33 6 46 38 76 50 48 94 61 224 68 60 3 112 11 117 17 5 6 11 58 14 116 6 128 20 172 69 223 35 37 40 39 82 35 57 -7 99 -37 125 -91 30 -61 27 -120 -14 -286 -19 -78 -35 -164 -35 -192 l 0 -49 -51 0 c -28 0 -112 -16 -186 -35 -163 -42 -239 -45 -298 -12 z M 1360 -805 c -74 19 -159 34 -188 35 l -52 0 0 49 c 0 28 -16 114 -35 192 -42 170 -44 229 -12 290 48 90 136 116 201 59 47 -42 67 -104 73 -232 3 -61 10 -112 17 -117 6 -5 58 -11 116 -14 126 -6 188 -26 230 -73 81 -93 -13 -225 -159 -223 -31 0 -117 15 -191 34 z M 879 -778 c -6 24 -9 68 -6 98 8 79 60 280 72 277 11 -4 51 -156 64 -246 7 -43 6 -81 -1 -117 l -11 -54 -53 0 -53 0 -12 42 z M 0 -328 l 0 328 327 0 326 0 -44 -23 c -85 -45 -142 -159 -162 -325 l -11 -92 -37 0 c -61 0 -187 -28 -242 -53 -69 -32 -111 -68 -136 -120 l -21 -42 0 327 z M 1870 -610 c -17 40 -72 87 -136 117 -56 25 -182 53 -243 53 l -38 0 -7 79 c -14 172 -78 300 -171 342 -40 18 -38 19 287 19 l 328 0 0 -320 c 0 -176 -2 -320 -4 -320 -2 0 -9 14 -16 30 z M 926 -166 c -21 49 -94 126 -141 147 l -40 19 200 0 200 0 -40 -19 c -49 -22 -118 -96 -136 -144 -7 -21 -17 -37 -21 -37 -4 0 -14 15 -22 34 z " />
  </g>
</svg>