<?xml version="1.0" encoding="UTF-8"?>
<svg viewBox="0 0 331.24731 190.38235" xmlns="http://www.w3.org/2000/svg">
 <defs>
  <filter id="c" x="-.08577" y="-1.5243" width="1.1715" height="4.0486">
   <feGaussianBlur stdDeviation="9.5308"/>
  </filter>
  <filter id="a" x="-.08815" y="-1.5666" width="1.1763" height="4.1332">
   <feGaussianBlur stdDeviation="9.7955"/>
  </filter>
  <filter id="b" x="-.09054" y="-1.609" width="1.1811" height="4.2179">
   <feGaussianBlur stdDeviation="10.0602"/>
  </filter>
  <filter id="d" x="-.07148" y="-1.2702" width="1.143" height="3.5405">
   <feGaussianBlur stdDeviation="7.9423"/>
  </filter>
 </defs>
 <g transform="translate(385.92 179.39)">
  <path d="m-240.52-3.8007c-0.34775-15.259 0.46626-29.504 0.48347-44.209 0.40646-9.4988 1.6369-27.003 2.1519-30.065-5.8074-0.48784-12.587 0.84366-17.41 1.6021-5.6907 1.0113-10.343 1.5799-16.575 2.6968-2.0094-6.6885-2.5938-15.901 0-22.539 10.578 3.2897 19.599 5.1127 31.416 6.6292-10.969-16.073-23.357-34.269-22.604-50.202 1.0478-14.887 13.75-27.405 28.424-29.128 11.446-1.3436 22.44 4.413 28.735 13.739 5.2626 7.7967 5.7544 18.473 4.4719 27.643-1.9777 14.141-11.884 26.493-19.7 37.947 9.3962-0.65276 21.006-4.4924 30.152-6.6292 3.0887 6.6292 3.0887 16.515 0 22.539-6.0647-1.641-9.3894-2.5284-16.552-3.4837-7.1931-0.83503-11.359-1.0467-16.4-0.85508 1.3328 4.3056 3.1655 58.835 2.7559 74.314z" fill="#e2b437"/>
  <path d="m-240.52-4.8108c-0.34775-15.259 0.46626-29.504 0.48347-44.209 0.40646-9.4988 1.6369-27.003 2.1519-30.065-5.8074-0.48784-12.587 0.84366-17.41 1.6021-5.6907 1.0113-10.343 1.5799-16.575 2.6968-2.0094-6.6885-2.5938-15.901 0-22.539 10.578 3.2897 19.599 5.1127 31.416 6.6292-10.969-16.073-23.357-34.269-22.604-50.202 1.0478-14.887 13.75-27.405 28.424-29.128 11.446-1.3436 22.44 4.413 28.735 13.739 5.2626 7.7967 5.7544 18.473 4.4719 27.643-1.9777 14.141-11.884 26.493-19.7 37.947 9.3962-0.65276 21.006-4.4924 30.152-6.6292 3.0887 6.6292 3.0887 16.515 0 22.539-6.0647-1.641-9.3894-2.5284-16.552-3.4837-7.1931-0.83503-11.359-1.0467-16.4-0.85508 1.3328 4.3056 3.1655 58.835 2.7559 74.314z" fill="#eeeb94" opacity=".3588"/>
  <path d="m-223.06-112.12c5.9967-11.187 8.7983-26.746 5.4833-36.075-3.5642-10.03-21.416-11.737-26.559-1.3735-3.8401 7.7386-1.359 17.449 1.6241 25.286 2.9136 7.6552 8.0443 15.094 12.652 21.819 2.4006-3.3482 5.1214-6.5266 6.7993-9.6567z" fill="#fefefe"/>
  <path transform="matrix(.99956 -.02951 .02951 .99956 -6.4738 -6.3395)" d="m-346.38-127.37c177.79-9.0914 76.043 6.8514 114.15 9.0914 26.574 1.5622 53.189 3.6318 79.802 3.0305 24.321-0.54957 72.731-6.0609 72.731-6.0609" fill="#3afefe" filter="url(#c)" opacity=".9962" stroke="#13e6e6"/>
  <path transform="matrix(.99485 -.10136 .10136 .99485 4.7945 -15.535)" d="m-362.54-63.673c177.79-9.0914 76.043 6.8514 114.15 9.0914 26.574 1.5622 53.189 3.6318 79.802 3.0305 24.321-0.54957 72.731-6.0609 72.731-6.0609" fill="#3afefe" filter="url(#a)" opacity=".9962" stroke="#13e6e6"/>
  <path transform="matrix(-1 0 0 1 -426.38 0)" d="m-347.53-95.049c177.79-9.0914 76.043 6.8514 114.15 9.0914 26.574 1.5622 53.189 3.6318 79.802 3.0305 24.321-0.54957 72.731-6.0609 72.731-6.0609" fill="#3afefe" filter="url(#b)" opacity=".9962" stroke="#13e6e6"/>
  <path d="m-359.53-157.05c177.79-9.0914 76.043 6.8514 114.15 9.0914 26.574 1.5622 53.189 3.6318 79.802 3.0305 24.321-0.54957 72.731-6.0609 72.731-6.0609" fill="#3afefe" filter="url(#d)" opacity=".916" stroke="#13e6e6"/>
  <path transform="matrix(-1 0 0 1 -462.58 0)" d="m-367.63-25.231c177.79-9.0914 76.043 6.8514 114.15 9.0914 26.574 1.5622 53.189 3.6318 79.802 3.0305 24.321-0.54957 72.731-6.0609 72.731-6.0609" fill="#3afefe" filter="url(#a)" opacity=".9962" stroke="#13e6e6"/>
 </g>
</svg>
